<svg preserveAspectRatio="none" width="100%" height="100%" overflow="visible" style="display: block;" viewBox="0 0 35.7222 40.2222" fill="none" xmlns="http://www.w3.org/2000/svg">
<g id="mynaui:upload">
<rect width="35.7222" height="40.2222" rx="4.44444" fill="var(--fill-0, #F3EFE6)"/>
<path id="Vector" d="M15.5891 11.1111H13.3611C12.7644 11.1111 12.1921 11.3482 11.7701 11.7701C11.3482 12.1921 11.1111 12.7644 11.1111 13.3611V26.8611C11.1111 27.4578 11.3482 28.0301 11.7701 28.4521C12.1921 28.8741 12.7644 29.1111 13.3611 29.1111H22.3611C22.9578 29.1111 23.5301 28.8741 23.9521 28.4521C24.3741 28.0301 24.6111 27.4578 24.6111 26.8611V20.1111M15.5891 11.1111C16.8321 11.1111 17.8611 12.1181 17.8611 13.3611V15.6111C17.8611 16.2078 18.0982 16.7801 18.5201 17.2021C18.9421 17.6241 19.5144 17.8611 20.1111 17.8611H22.3611C22.9578 17.8611 23.5301 18.0982 23.9521 18.5201C24.3741 18.9421 24.6111 19.5144 24.6111 20.1111M15.5891 11.1111C19.2791 11.1111 24.6111 16.4711 24.6111 20.1111" stroke="var(--stroke-0, #764D2F)" stroke-width="1.5" stroke-linecap="round" stroke-linejoin="round"/>
</g>
</svg>
