<svg preserveAspectRatio="none" width="100%" height="100%" overflow="visible" style="display: block;" viewBox="0 0 16.125 13.125" fill="none" xmlns="http://www.w3.org/2000/svg">
<g id="Group">
<path id="Vector" d="M1.51875 9.0345C0.88125 8.2065 0.5625 7.79175 0.5625 6.5625C0.5625 5.3325 0.88125 4.91925 1.51875 4.0905C2.7915 2.4375 4.926 0.5625 8.0625 0.5625C11.199 0.5625 13.3335 2.4375 14.6063 4.0905C15.2438 4.92 15.5625 5.33325 15.5625 6.5625C15.5625 7.7925 15.2438 8.20575 14.6063 9.0345C13.3335 10.6875 11.199 12.5625 8.0625 12.5625C4.926 12.5625 2.7915 10.6875 1.51875 9.0345Z" stroke="var(--stroke-0, #764D2F)" stroke-width="1.125"/>
<path id="Vector_2" d="M10.3125 6.5625C10.3125 7.15924 10.0754 7.73153 9.65349 8.15349C9.23153 8.57545 8.65924 8.8125 8.0625 8.8125C7.46576 8.8125 6.89347 8.57545 6.47151 8.15349C6.04955 7.73153 5.8125 7.15924 5.8125 6.5625C5.8125 5.96576 6.04955 5.39347 6.47151 4.97151C6.89347 4.54955 7.46576 4.3125 8.0625 4.3125C8.65924 4.3125 9.23153 4.54955 9.65349 4.97151C10.0754 5.39347 10.3125 5.96576 10.3125 6.5625Z" stroke="var(--stroke-0, #764D2F)" stroke-width="1.125"/>
</g>
</svg>
