<svg preserveAspectRatio="none" width="100%" height="100%" overflow="visible" style="display: block;" viewBox="0 0 17.0625 16.9298" fill="none" xmlns="http://www.w3.org/2000/svg">
<path id="icon" fill-rule="evenodd" clip-rule="evenodd" d="M6.5128 0.523034C7.76808 -0.174345 9.29442 -0.174344 10.5497 0.523034L14.9247 2.95359C16.2442 3.68662 17.0625 5.07739 17.0625 6.58681V10.343C17.0625 11.8524 16.2442 13.2432 14.9247 13.9762L10.5497 16.4068C9.29442 17.1041 7.76808 17.1041 6.5128 16.4068L2.1378 13.9762C0.818332 13.2432 0 11.8524 0 10.343V6.58681C0 5.07739 0.818333 3.68662 2.1378 2.95359L6.5128 0.523034ZM9.9123 1.67037C9.05342 1.19321 8.00908 1.19321 7.1502 1.67036L6.41732 2.07752L12.0529 5.60422L14.4398 4.19195C14.3901 4.16016 14.3393 4.1298 14.2873 4.10092L9.9123 1.67037ZM15.37 5.1666L10.6129 7.98119L10.6111 7.98228C10.166 8.24908 9.68293 8.42575 9.1875 8.51195V15.5406C9.43768 15.4813 9.68168 15.3875 9.9123 15.2594L14.2873 12.8289C15.1901 12.3273 15.75 11.3757 15.75 10.343V6.58681C15.75 6.07919 15.6147 5.59119 15.37 5.1666ZM7.875 8.5301C7.37722 8.4576 6.88933 8.29426 6.43682 8.03972L1.60842 5.32366C1.41697 5.70975 1.3125 6.1407 1.3125 6.58681V10.343C1.3125 11.3757 1.87241 12.3273 2.7752 12.8289L7.1502 15.2594C7.38082 15.3875 7.62482 15.4813 7.875 15.5406V8.5301ZM2.46574 4.30002L7.08031 6.89579C7.97079 7.3967 9.06155 7.38141 9.93765 6.85574L9.94111 6.85366L10.7811 6.35668L5.10669 2.80565L2.7752 4.10092C2.667 4.16103 2.56372 4.22761 2.46574 4.30002Z" fill="var(--fill-0, #764D2F)"/>
</svg>
