<svg preserveAspectRatio="none" width="100%" height="100%" overflow="visible" style="display: block;" viewBox="0 0 15 16.4049" fill="none" xmlns="http://www.w3.org/2000/svg">
<g id="icon">
<path fill-rule="evenodd" clip-rule="evenodd" d="M10.8333 7.5C10.8333 9.34095 9.34095 10.8333 7.5 10.8333C5.65905 10.8333 4.16667 9.34095 4.16667 7.5C4.16667 5.65905 5.65905 4.16667 7.5 4.16667C9.34095 4.16667 10.8333 5.65905 10.8333 7.5ZM9.58333 7.5C9.58333 8.65059 8.65059 9.58333 7.5 9.58333C6.34941 9.58333 5.41667 8.65059 5.41667 7.5C5.41667 6.34941 6.34941 5.41667 7.5 5.41667C8.65059 5.41667 9.58333 6.34941 9.58333 7.5Z" fill="var(--fill-0, #FFB680)"/>
<path fill-rule="evenodd" clip-rule="evenodd" d="M6.27363 16.1265C2.78515 14.3754 0.374247 11.2204 0 7.5C0 3.35786 3.35786 0 7.5 0C11.6421 0 15 3.35786 15 7.5C14.6287 11.1912 11.9412 14.3257 8.70678 16.0849C7.95122 16.4959 7.04231 16.5124 6.27363 16.1265ZM8.10953 14.9869C7.71206 15.203 7.23571 15.2108 6.83442 15.0094C3.69245 13.4322 1.59658 10.6468 1.2503 7.43799C1.28358 4.01477 4.06891 1.25 7.5 1.25C10.931 1.25 13.7162 4.01458 13.7497 7.43764C13.4072 10.5739 11.0797 13.3714 8.10953 14.9869Z" fill="var(--fill-0, #FFB680)"/>
</g>
</svg>
