<svg preserveAspectRatio="none" width="100%" height="100%" overflow="visible" style="display: block;" viewBox="0 0 24 24" fill="none" xmlns="http://www.w3.org/2000/svg">
<g id="fluent:print-48-regular">
<path id="Vector" d="M7.69444 3.08333H16.3056C16.7667 3.0833 17.2105 3.25975 17.5457 3.57648C17.8809 3.89322 18.0822 4.32622 18.1083 4.78667L18.1111 4.88889V6.41611L19.0833 6.41667C20.6944 6.41667 22 7.72222 22 9.33333V16.8333C22 17.3122 21.8098 17.7714 21.4712 18.1101C21.1326 18.4487 20.6733 18.6389 20.1944 18.6389L18.1111 18.6383V19.6111C18.1111 20.09 17.9209 20.5492 17.5823 20.8878C17.2437 21.2264 16.7844 21.4167 16.3056 21.4167H7.69444C7.21558 21.4167 6.75633 21.2264 6.41772 20.8878C6.07912 20.5492 5.88889 20.09 5.88889 19.6111V18.6383L3.80556 18.6389C3.32669 18.6389 2.86744 18.4487 2.52883 18.1101C2.19023 17.7714 2 17.3122 2 16.8333V9.33333C2 7.72222 3.30556 6.41667 4.91667 6.41667L5.88889 6.41611V4.88889C5.88886 4.4277 6.06531 3.98398 6.38204 3.64876C6.69877 3.31354 7.13177 3.11222 7.59222 3.08611L7.69444 3.08333ZM16.3056 14.4722H7.69444C7.58394 14.4722 7.47796 14.5161 7.39982 14.5943C7.32168 14.6724 7.27778 14.7784 7.27778 14.8889V19.6111C7.27778 19.8411 7.46444 20.0278 7.69444 20.0278H16.3056C16.4161 20.0278 16.522 19.9839 16.6002 19.9057C16.6783 19.8276 16.7222 19.7216 16.7222 19.6111V14.8889C16.7222 14.7784 16.6783 14.6724 16.6002 14.5943C16.522 14.5161 16.4161 14.4722 16.3056 14.4722ZM19.0833 7.80556H4.91667C4.51147 7.80556 4.12288 7.96652 3.83636 8.25303C3.54985 8.53955 3.38889 8.92814 3.38889 9.33333V16.8333C3.38889 17.0633 3.57556 17.25 3.80556 17.25L5.88889 17.2494V14.8889C5.88889 14.41 6.07912 13.9508 6.41772 13.6122C6.75633 13.2736 7.21558 13.0833 7.69444 13.0833H16.3056C16.7844 13.0833 17.2437 13.2736 17.5823 13.6122C17.9209 13.9508 18.1111 14.41 18.1111 14.8889V17.2494L20.1944 17.25C20.305 17.25 20.4109 17.2061 20.4891 17.128C20.5672 17.0498 20.6111 16.9438 20.6111 16.8333V9.33333C20.6111 8.92814 20.4501 8.53955 20.1636 8.25303C19.8771 7.96652 19.4885 7.80556 19.0833 7.80556ZM16.3056 4.47222H7.69444C7.59376 4.47223 7.49648 4.50869 7.42059 4.57487C7.34471 4.64105 7.29536 4.73247 7.28167 4.83222L7.27778 4.88889V6.41611H16.7222V4.88889C16.7222 4.7882 16.6858 4.69092 16.6196 4.61504C16.5534 4.53916 16.462 4.4898 16.3622 4.47611L16.3056 4.47222Z" fill="var(--fill-0, white)"/>
</g>
</svg>
