<svg preserveAspectRatio="none" width="100%" height="100%" overflow="visible" style="display: block;" viewBox="0 0 11.2999 14.9501" fill="none" xmlns="http://www.w3.org/2000/svg">
<g id="icon">
<path d="M11.1077 1.12029C11.364 0.864007 11.364 0.448493 11.1077 0.192211C10.8514 -0.0640704 10.4359 -0.0640704 10.1796 0.192211L7.50927 2.86259L7.46298 1.98294C7.44393 1.621 7.13508 1.34304 6.77314 1.36209C6.4112 1.38114 6.13324 1.68999 6.15229 2.05192L6.27603 4.40305C6.29368 4.73836 6.56158 5.00626 6.89689 5.0239L9.24802 5.14765C9.60995 5.1667 9.9188 4.88873 9.93785 4.5268C9.9569 4.16486 9.67893 3.85601 9.317 3.83696L8.43735 3.79066L11.1077 1.12029Z" fill="var(--fill-0, #764D2F)"/>
<path fill-rule="evenodd" clip-rule="evenodd" d="M3.28125 3.13756C3.64369 3.13756 3.9375 3.43138 3.9375 3.79381V4.4635C5.41061 4.60496 6.5625 5.84612 6.5625 7.35631C6.5625 7.71875 6.26869 8.01256 5.90625 8.01256C5.54381 8.01256 5.25 7.71875 5.25 7.35631C5.25 6.57208 4.68357 5.92014 3.9375 5.7873V8.38756C5.38725 8.38756 6.5625 9.56282 6.5625 11.0126C6.5625 12.4623 5.38725 13.6376 3.9375 13.6376V14.2938C3.9375 14.6562 3.64369 14.9501 3.28125 14.9501C2.91881 14.9501 2.625 14.6562 2.625 14.2938V13.6241C1.15189 13.4827 0 12.2415 0 10.7313C0 10.3689 0.293813 10.0751 0.65625 10.0751C1.01869 10.0751 1.3125 10.3689 1.3125 10.7313C1.3125 11.5155 1.87893 12.1675 2.625 12.3003V9.70006C1.17525 9.70006 0 8.52481 0 7.07506C0 5.62532 1.17525 4.45006 2.625 4.45006V3.79381C2.625 3.43138 2.91881 3.13756 3.28125 3.13756ZM1.3125 7.07506C1.3125 6.35019 1.90013 5.76256 2.625 5.76256V8.38756C1.90013 8.38756 1.3125 7.79994 1.3125 7.07506ZM5.25 11.0126C5.25 11.7374 4.66237 12.3251 3.9375 12.3251V9.70006C4.66237 9.70006 5.25 10.2877 5.25 11.0126Z" fill="var(--fill-0, #764D2F)"/>
</g>
</svg>
