<svg preserveAspectRatio="none" width="100%" height="100%" overflow="visible" style="display: block;" viewBox="0 0 14.8994 14.8984" fill="none" xmlns="http://www.w3.org/2000/svg">
<g id="icon">
<path fill-rule="evenodd" clip-rule="evenodd" d="M6.76489 0.161659C7.19598 -0.0538862 7.7034 -0.0538862 8.13449 0.161658L14.0529 3.12088C15.1815 3.68518 15.1815 5.29576 14.0529 5.86006L8.13449 8.81928C7.7034 9.03483 7.19598 9.03483 6.7649 8.81928L0.846455 5.86006C-0.282148 5.29576 -0.282155 3.68518 0.846453 3.12088L6.76489 0.161659ZM7.54752 1.33559C7.48593 1.3048 7.41345 1.3048 7.35186 1.33559L1.43342 4.29482C1.27219 4.37543 1.27219 4.60551 1.43342 4.68613L7.35186 7.64535C7.41345 7.67614 7.48594 7.67614 7.54752 7.64535L13.466 4.68613C13.6272 4.60551 13.6272 4.37543 13.466 4.29481L7.54752 1.33559Z" fill="var(--fill-0, #764D2F)"/>
<path d="M0.863923 7.1562C1.22587 7.17512 1.50394 7.48387 1.48501 7.84582C1.48259 7.89219 1.49336 7.9355 1.51267 7.96965C1.53025 8.00072 1.55883 8.03185 1.61016 8.05605L7.35677 10.7649C7.41583 10.7927 7.48425 10.7927 7.54331 10.7649L13.2899 8.05605C13.3413 8.03185 13.3698 8.00072 13.3874 7.96965C13.4067 7.9355 13.4175 7.89219 13.4151 7.84582C13.3961 7.48387 13.6742 7.17512 14.0362 7.1562C14.3981 7.13728 14.7069 7.41535 14.7258 7.77729C14.7557 8.3489 14.4655 8.95289 13.8495 9.24327L8.10294 11.9521C7.68949 12.147 7.21059 12.147 6.79714 11.9521L1.05053 9.24326C0.434532 8.95289 0.144421 8.34889 0.174305 7.77729C0.193228 7.41535 0.501981 7.13728 0.863923 7.1562Z" fill="var(--fill-0, #764D2F)"/>
<path d="M1.48496 10.647C1.50221 10.285 1.22272 9.97753 0.860697 9.96028C0.498671 9.94302 0.191202 10.2225 0.173947 10.5845C0.146803 11.154 0.437199 11.7542 1.05053 12.0433L6.79714 14.7522C7.21059 14.9471 7.68949 14.9471 8.10294 14.7522L13.8495 12.0433C14.4629 11.7542 14.7533 11.154 14.7261 10.5845C14.7089 10.2225 14.4014 9.94302 14.0394 9.96028C13.6774 9.97753 13.3979 10.285 13.4151 10.647C13.4173 10.6932 13.4065 10.7362 13.3872 10.7702C13.3696 10.801 13.3411 10.832 13.2899 10.8561L7.54331 13.565C7.48425 13.5928 7.41583 13.5928 7.35677 13.565L1.61016 10.8561C1.55901 10.832 1.53049 10.801 1.51292 10.7702C1.49362 10.7362 1.48276 10.6932 1.48496 10.647Z" fill="var(--fill-0, #764D2F)"/>
</g>
</svg>
