<svg preserveAspectRatio="none" width="100%" height="100%" overflow="visible" style="display: block;" viewBox="0 0 17.5 15.75" fill="none" xmlns="http://www.w3.org/2000/svg">
<g id="icon">
<path d="M15.5312 2.24058V4.15625C15.5312 4.51869 15.2374 4.8125 14.875 4.8125C14.5126 4.8125 14.2188 4.51869 14.2188 4.15625V2.24058L14.0265 2.43279C13.7703 2.68907 13.3547 2.68907 13.0985 2.43279C12.8422 2.17651 12.8422 1.76099 13.0985 1.50471L14.411 0.192211C14.534 0.0691404 14.701 0 14.875 0C15.049 0 15.216 0.0691404 15.339 0.192211L16.6515 1.50471C16.9078 1.76099 16.9078 2.17651 16.6515 2.43279C16.3953 2.68907 15.9797 2.68907 15.7235 2.43279L15.5312 2.24058Z" fill="var(--fill-0, #764D2F)"/>
<path d="M13.3438 8.75C13.3438 8.38756 13.6376 8.09375 14 8.09375H14.875C15.2374 8.09375 15.5312 8.38756 15.5312 8.75C15.5312 9.11244 15.2374 9.40625 14.875 9.40625H14C13.6376 9.40625 13.3438 9.11244 13.3438 8.75Z" fill="var(--fill-0, #764D2F)"/>
<path fill-rule="evenodd" clip-rule="evenodd" d="M12.25 2.40625C12.25 2.04381 11.9562 1.75 11.5938 1.75H3.5C1.567 1.75 0 3.317 0 5.25V12.25C0 14.183 1.567 15.75 3.5 15.75H14C15.933 15.75 17.5 14.183 17.5 12.25V5.90625C17.5 5.54381 17.2062 5.25 16.8438 5.25C16.8092 5.25 16.7754 5.25266 16.7423 5.25779C16.7039 5.25265 16.6648 5.25 16.625 5.25H14C12.067 5.25 10.5 6.817 10.5 8.75C10.5 10.683 12.067 12.25 14 12.25L16.1875 12.25C16.1875 13.4581 15.2081 14.4375 14 14.4375H3.5C2.29188 14.4375 1.3125 13.4581 1.3125 12.25V5.25C1.3125 4.04188 2.29188 3.0625 3.5 3.0625H11.5938C11.9562 3.0625 12.25 2.76869 12.25 2.40625ZM14 6.5625H16.1875V10.9375H14C12.7919 10.9375 11.8125 9.95812 11.8125 8.75C11.8125 7.54188 12.7919 6.5625 14 6.5625Z" fill="var(--fill-0, #764D2F)"/>
<path d="M4.48289 4.60268C4.12538 4.54309 3.78726 4.78461 3.72768 5.14211C3.66809 5.49962 3.90961 5.83774 4.26711 5.89732L6.31672 6.23892C6.76912 6.31432 7.23088 6.31432 7.68328 6.23892L9.73289 5.89732C10.0904 5.83774 10.3319 5.49962 10.2723 5.14211C10.2127 4.78461 9.87462 4.54309 9.51711 4.60268L7.46751 4.94428C7.15797 4.99587 6.84203 4.99587 6.53249 4.94428L4.48289 4.60268Z" fill="var(--fill-0, #764D2F)"/>
</g>
</svg>
