<svg preserveAspectRatio="none" width="100%" height="100%" overflow="visible" style="display: block;" viewBox="0 0 17.5 17.5" fill="none" xmlns="http://www.w3.org/2000/svg">
<g id="icon">
<path d="M9.40625 4.375C9.40625 4.01256 9.11244 3.71875 8.75 3.71875C8.38756 3.71875 8.09375 4.01256 8.09375 4.375V9.625C8.09375 9.98744 8.38756 10.2812 8.75 10.2812H12.25C12.6124 10.2812 12.9062 9.98744 12.9062 9.625C12.9062 9.26256 12.6124 8.96875 12.25 8.96875H9.40625V4.375Z" fill="var(--fill-0, #764D2F)"/>
<path fill-rule="evenodd" clip-rule="evenodd" d="M17.5 8.75C17.5 13.5825 13.5825 17.5 8.75 17.5C3.91751 17.5 0 13.5825 0 8.75C0 3.91751 3.91751 0 8.75 0C13.5825 0 17.5 3.91751 17.5 8.75ZM16.1875 8.75C16.1875 12.8576 12.8576 16.1875 8.75 16.1875C4.64238 16.1875 1.3125 12.8576 1.3125 8.75C1.3125 4.64238 4.64238 1.3125 8.75 1.3125C12.8576 1.3125 16.1875 4.64238 16.1875 8.75Z" fill="var(--fill-0, #764D2F)"/>
</g>
</svg>
