<svg preserveAspectRatio="none" width="100%" height="100%" overflow="visible" style="display: block;" viewBox="0 0 53.3614 53.3614" fill="none" xmlns="http://www.w3.org/2000/svg">
<path id="Background" d="M51.4293 26.6807C51.4293 29.9307 50.7891 33.1489 49.5454 36.1516C48.3017 39.1542 46.4787 41.8825 44.1806 44.1806C41.8825 46.4787 39.1542 48.3017 36.1516 49.5454C33.1489 50.7891 29.9307 51.4293 26.6807 51.4293C23.4306 51.4293 20.2124 50.7891 17.2098 49.5454C14.2072 48.3017 11.4789 46.4787 9.18078 44.1806C6.88266 41.8825 5.05969 39.1542 3.81595 36.1516C2.57222 33.1489 1.93208 29.9307 1.93208 26.6807C1.93208 23.4306 2.57222 20.2124 3.81595 17.2098C5.05969 14.2072 6.88266 11.4789 9.18078 9.18077C11.4789 6.88265 14.2072 5.05969 17.2098 3.81595C20.2124 2.57222 23.4307 1.93208 26.6807 1.93208C29.9307 1.93208 33.1489 2.57222 36.1516 3.81595C39.1542 5.05969 41.8825 6.88266 44.1806 9.18078C46.4787 11.4789 48.3017 14.2072 49.5454 17.2098C50.7891 20.2124 51.4293 23.4307 51.4293 26.6807L51.4293 26.6807Z" stroke="var(--stroke-0, #E8E8E8)" stroke-width="3.86416"/>
</svg>
